<?xml version="1.0" standalone="no"?>
<!DOCTYPE svg PUBLIC "-//W3C//DTD SVG 20010904//EN"
 "http://www.w3.org/TR/2001/REC-SVG-20010904/DTD/svg10.dtd">
<svg version="1.0" xmlns="http://www.w3.org/2000/svg"
 width="512.000000pt" height="512.000000pt" viewBox="0 0 512.000000 512.000000"
 preserveAspectRatio="xMidYMid meet">
<metadata>
Created by potrace 1.14, written by Peter Selinger 2001-2017
</metadata>
<g transform="translate(0.000000,512.000000) scale(0.100000,-0.100000)"
fill="#000000" stroke="none">
<path d="M1297 4494 c-7 -11 8 -262 23 -382 6 -48 22 -141 35 -207 25 -123
133 -518 160 -582 8 -19 15 -60 15 -90 0 -41 6 -63 23 -86 20 -30 22 -42 22
-182 l0 -150 -45 2 c-136 5 -309 3 -334 -4 -16 -5 -31 -14 -33 -20 -3 -8 32
-9 119 -6 110 5 251 -7 266 -22 23 -23 -99 -65 -190 -65 -26 0 -50 -5 -53 -11
-5 -7 41 -9 147 -7 84 1 218 -3 298 -10 80 -7 217 -13 306 -13 145 -1 167 2
213 22 90 38 160 135 196 272 20 78 40 97 100 97 56 0 71 -14 99 -95 13 -38
27 -77 30 -85 5 -13 -12 -15 -118 -15 -68 0 -128 -4 -133 -8 -4 -5 4 -18 20
-29 15 -11 27 -25 27 -32 0 -6 18 -33 40 -60 67 -81 49 -139 -51 -166 -41 -11
-64 -5 -101 28 -10 8 -18 10 -18 4 0 -18 50 -51 86 -58 26 -5 46 0 82 18 43
22 50 23 70 10 54 -36 141 -32 177 8 16 17 16 20 2 20 -9 0 -19 -5 -22 -11
-22 -35 -98 -28 -142 13 -35 33 -30 74 17 133 43 54 50 75 23 75 -37 0 -61
-13 -67 -33 -5 -22 -6 -22 -31 6 -14 15 -32 27 -40 27 -8 0 -15 5 -15 10 0 12
88 12 147 1 31 -6 45 -5 56 6 13 13 17 10 37 -19 39 -56 83 -99 125 -121 36
-18 56 -20 195 -19 85 1 198 4 250 7 52 3 88 2 80 -2 -8 -3 -17 -9 -20 -12 -3
-3 -43 -26 -90 -50 -47 -24 -92 -49 -100 -56 -8 -7 -37 -18 -65 -25 -27 -7
-57 -17 -65 -22 -21 -13 93 -1 155 16 46 13 47 14 17 15 -19 1 -31 5 -27 11 8
13 52 13 60 0 3 -5 13 -6 21 -3 13 5 13 8 2 15 -9 7 -5 8 12 4 24 -5 24 -4 6
9 -23 18 -13 20 16 4 15 -8 23 -8 32 1 8 8 7 10 -5 5 -10 -4 -19 -2 -23 3 -3
5 21 19 52 32 31 13 75 35 96 49 39 25 43 26 193 23 161 -3 212 11 76 21 -90
6 -157 27 -161 50 -5 26 94 40 246 34 107 -4 132 -3 132 8 0 29 -241 38 -344
14 -39 -9 -50 -9 -58 2 -5 8 -7 73 -3 159 5 111 10 151 23 170 9 14 22 57 29
95 6 39 34 147 62 240 99 330 145 589 158 879 l6 149 -77 -7 c-158 -14 -354
-79 -635 -211 -145 -67 -145 -68 -210 -61 -37 4 -81 9 -100 13 -34 6 -34 6
-28 -28 17 -92 27 -230 28 -384 1 -163 13 -262 33 -258 5 1 25 51 44 110 30
92 35 122 35 201 0 50 1 92 3 92 1 0 23 -9 49 -20 26 -11 57 -20 69 -20 14 0
56 27 102 66 389 324 524 388 546 261 7 -37 -9 -204 -28 -307 -28 -145 -101
-337 -144 -380 -19 -19 -19 -20 5 -75 14 -31 25 -64 25 -75 0 -27 -31 -90 -45
-90 -6 0 -62 7 -125 16 -158 22 -373 15 -490 -15 -92 -24 -150 -54 -150 -77 0
-11 -28 -14 -159 -14 -149 0 -161 1 -174 20 -19 27 -123 68 -215 86 -129 25
-384 15 -539 -21 -15 -4 -23 -1 -23 7 0 8 -9 29 -19 49 l-19 36 24 59 c14 32
28 65 31 72 3 7 -2 12 -11 12 -32 0 -111 196 -150 372 -28 122 -44 287 -32
331 14 59 66 73 135 38 51 -26 279 -199 425 -322 39 -33 76 -59 83 -59 8 0 30
7 51 16 90 38 81 48 80 -84 0 -101 3 -126 25 -184 14 -37 31 -77 38 -90 13
-23 13 -23 20 12 4 19 12 62 19 95 8 37 10 97 7 157 -4 60 0 145 8 220 22 187
28 172 -57 162 -40 -5 -86 -8 -103 -8 -16 0 -106 37 -200 81 -186 89 -297 130
-444 168 -110 27 -226 42 -234 29z m693 -1273 l25 -7 -28 -7 c-52 -14 -63 -97
-23 -175 31 -62 94 -119 141 -128 118 -22 245 41 245 121 0 16 -4 14 -19 -11
-26 -43 -47 -55 -27 -16 24 47 20 95 -11 134 l-27 33 33 -30 c42 -37 61 -81
61 -138 0 -108 -58 -204 -135 -226 -55 -15 -160 -14 -284 4 -140 20 -176 31
-194 59 -26 40 -55 137 -62 211 -6 63 -4 73 15 98 30 37 89 66 158 76 71 11
100 11 132 2z m1333 -17 c26 -9 63 -31 82 -49 32 -29 35 -38 35 -86 0 -66 -23
-166 -50 -218 -23 -46 -43 -55 -185 -76 -126 -19 -275 -20 -318 -1 -45 18 -84
67 -102 128 -31 106 -9 201 57 252 48 36 56 33 13 -5 -60 -53 -64 -133 -9
-190 28 -29 52 -40 38 -16 -5 7 -1 7 12 -3 30 -22 30 -24 9 -16 -16 6 -18 5
-7 -6 21 -21 143 -23 183 -3 80 40 132 118 133 198 1 50 -12 69 -70 103 -29
17 120 7 179 -12z m-189 -4 c64 -24 52 -166 -20 -230 -42 -36 -73 -50 -115
-50 l-30 0 39 38 c24 22 45 54 53 81 12 39 11 47 -7 80 -12 22 -34 43 -59 56
-39 19 -39 19 -15 26 38 11 125 10 154 -1z m-964 -8 c0 -5 -11 -14 -25 -20
-74 -34 -66 -157 15 -226 l32 -26 -40 0 c-93 0 -200 135 -178 224 12 47 31 56
117 56 43 0 79 -4 79 -8z m68 -73 c4 -34 -22 -57 -43 -39 -16 13 -20 51 -8 64
16 16 48 1 51 -25z m732 -15 c0 -29 -24 -42 -45 -24 -18 15 -20 57 -2 63 22 8
47 -13 47 -39z m-133 -86 c-3 -8 -6 -5 -6 6 -1 11 2 17 5 13 3 -3 4 -12 1 -19z"/>
<path d="M3301 2874 c0 -11 3 -14 6 -6 3 7 2 16 -1 19 -3 4 -6 -2 -5 -13z"/>
<path d="M2470 4254 c-14 -2 -43 -7 -65 -9 l-41 -6 13 -92 c6 -51 15 -171 18
-267 8 -210 17 -288 51 -400 49 -161 50 -149 28 260 -4 63 -4 113 -1 110 3 -3
10 -59 17 -125 10 -111 45 -308 57 -329 10 -16 53 94 62 160 6 37 13 69 17 73
6 6 0 -118 -11 -209 l-5 -45 14 40 14 40 2 -35 2 -35 14 34 c37 83 65 255 83
501 18 233 18 319 2 325 -19 7 -240 15 -271 9z m167 -546 c-2 -13 -4 -3 -4 22
0 25 2 35 4 23 2 -13 2 -33 0 -45z"/>
<path d="M1735 4101 c11 -5 31 -10 45 -10 14 -1 39 -10 57 -21 25 -15 31 -16
26 -4 -8 22 -33 32 -94 39 -38 4 -48 2 -34 -4z"/>
<path d="M3304 4100 c-12 -5 -25 -14 -29 -20 -6 -9 -2 -9 13 -1 11 6 36 11 54
12 18 0 42 4 53 9 28 12 -62 12 -91 0z"/>
<path d="M3249 4041 c-13 -11 -22 -20 -19 -20 16 0 102 28 88 28 -9 1 -23 3
-31 6 -7 3 -25 -3 -38 -14z"/>
<path d="M1795 4030 c46 -8 79 -22 114 -47 24 -17 24 -17 12 5 -17 32 -63 52
-118 51 l-48 -2 40 -7z"/>
<path d="M3286 4009 c-55 -8 -86 -22 -86 -39 0 -4 24 0 53 10 28 10 68 23 87
28 43 12 24 12 -54 1z"/>
<path d="M1780 3980 c-11 -7 -3 -10 31 -10 25 0 54 -7 65 -15 18 -14 17 -14
-16 -16 -34 -1 -34 -1 -8 -9 15 -4 37 -15 50 -24 12 -9 32 -16 45 -16 21 0 22
1 6 28 -26 45 -138 86 -173 62z"/>
<path d="M3234 3951 c-48 -12 -61 -23 -38 -32 15 -6 15 -8 3 -8 -19 -1 -48
-31 -30 -31 18 0 77 40 61 41 -8 0 14 9 50 19 61 17 62 18 25 18 -22 0 -54 -3
-71 -7z"/>
<path d="M3210 3869 c0 -5 10 -9 22 -9 21 0 21 0 2 -15 -18 -14 -18 -14 8 -15
14 0 28 5 30 12 3 7 38 13 97 16 50 3 89 7 86 11 -10 9 -245 10 -245 0z"/>
<path d="M1760 3860 c47 -4 103 -11 125 -15 37 -7 39 -7 26 8 -11 14 -32 17
-125 16 l-111 -2 85 -7z"/>
<path d="M1845 3820 c-3 -5 -2 -10 4 -10 5 0 13 5 16 10 3 6 2 10 -4 10 -5 0
-13 -4 -16 -10z"/>
<path d="M3279 3798 c8 -21 15 -23 92 -25 93 -3 90 10 -5 21 -32 3 -67 11 -77
16 -16 9 -18 8 -10 -12z"/>
<path d="M1741 3789 c-77 -13 -75 -19 7 -19 73 0 102 6 102 21 0 11 -35 10
-109 -2z"/>
<path d="M3400 3674 c65 -69 107 -102 60 -48 -58 68 -86 96 -105 106 -11 6 9
-20 45 -58z"/>
<path d="M1705 3670 c-32 -33 -57 -62 -54 -64 3 -3 31 24 63 59 31 36 56 65
54 65 -2 0 -30 -27 -63 -60z"/>
<path d="M1990 3602 c0 -22 30 -86 52 -109 12 -13 17 -23 11 -23 -7 0 -28 19
-47 42 -23 27 -36 36 -36 25 0 -22 69 -90 85 -83 8 3 19 -2 26 -10 7 -8 21
-20 31 -25 35 -19 19 18 -31 73 -26 29 -58 69 -70 88 -11 19 -21 29 -21 22z"/>
<path d="M2898 3560 c-24 -95 -15 -211 12 -170 11 17 12 132 1 170 l-7 25 -6
-25z"/>
<path d="M2194 3487 c2 -63 7 -91 17 -97 19 -12 28 12 27 70 0 40 -1 42 -8 15
-7 -30 -7 -30 -13 -5 -26 108 -26 108 -23 17z"/>
<path d="M3121 3524 c-37 -16 -131 -91 -131 -105 0 -22 92 32 173 102 18 14
-9 17 -42 3z"/>
<path d="M2385 3490 c-4 -6 -9 -36 -11 -68 -6 -71 11 -51 21 26 7 50 3 64 -10
42z"/>
<path d="M2730 3430 c0 -40 4 -70 10 -70 6 0 10 30 10 70 0 40 -4 70 -10 70
-6 0 -10 -30 -10 -70z"/>
<path d="M3132 3463 c-23 -16 -23 -16 34 -34 32 -10 60 -17 62 -15 9 10 -45
47 -61 42 -13 -3 -17 0 -13 10 6 17 7 17 -22 -3z"/>
<path d="M1940 3450 c0 -5 21 -10 48 -9 38 1 42 2 22 9 -36 12 -70 12 -70 0z"/>
<path d="M2730 2665 c0 -8 4 -15 10 -15 5 0 7 7 4 15 -4 8 -8 15 -10 15 -2 0
-4 -7 -4 -15z"/>
<path d="M2325 2660 c3 -5 13 -10 21 -10 8 0 12 5 9 10 -3 6 -13 10 -21 10 -8
0 -12 -4 -9 -10z"/>
<path d="M2390 2660 c0 -5 5 -10 10 -10 6 0 10 5 10 10 0 6 -4 10 -10 10 -5 0
-10 -4 -10 -10z"/>
<path d="M2780 2660 c-12 -8 -11 -10 8 -10 12 0 22 5 22 10 0 13 -11 13 -30 0z"/>
<path d="M1815 2604 c17 -13 48 -34 70 -45 l40 -19 -35 5 c-19 3 -53 14 -74
25 -22 11 -42 17 -45 15 -9 -9 133 -67 198 -81 124 -26 135 -12 20 25 -36 12
-93 39 -127 61 -70 45 -91 52 -47 14z"/>
<path d="M1820 2394 c277 -97 373 -135 507 -200 106 -52 140 -74 170 -109 36
-44 39 -45 93 -43 l55 1 -58 6 c-51 5 -59 10 -77 38 -23 38 -120 98 -268 163
-102 46 -542 201 -566 199 -6 0 59 -25 144 -55z"/>
<path d="M1490 2423 c0 -30 70 -714 79 -771 8 -54 4 -65 -21 -58 -7 2 -26 7
-43 10 l-30 6 25 -15 c14 -8 37 -14 52 -15 22 0 29 -6 33 -27 24 -116 29 -126
83 -170 29 -24 57 -43 61 -43 5 0 11 14 15 30 7 39 48 80 79 80 14 0 32 -10
41 -22 17 -22 16 -14 0 26 -8 20 48 30 90 16 20 -6 43 -25 55 -43 l21 -32 -7
34 c-6 31 -5 33 14 22 65 -34 123 -150 153 -305 8 -39 17 -60 28 -63 10 -2 35
-13 57 -23 l40 -19 -57 5 -58 6 0 -69 c0 -99 -23 -170 -72 -216 l-39 -37 449
0 449 0 -37 39 c-57 60 -80 184 -51 273 15 45 39 68 50 49 5 -8 10 3 14 29 7
53 47 105 93 120 38 13 53 4 54 -30 0 -8 8 1 18 20 14 30 23 35 55 38 44 4 67
-11 68 -42 0 -11 3 -15 6 -8 14 35 75 -10 89 -65 4 -12 7 -23 9 -23 12 0 121
43 162 63 79 41 88 57 114 227 l24 150 43 6 c23 3 45 11 49 17 4 6 -10 7 -42
3 l-47 -8 7 64 c9 75 10 78 38 78 12 1 36 7 52 15 17 8 21 13 10 11 -83 -18
-85 -18 -85 -2 0 8 9 77 21 153 26 176 58 447 53 452 -5 6 -68 -9 -400 -90
-410 -100 -563 -156 -600 -218 -22 -36 -37 -41 -145 -41 -90 0 -103 5 -132 52
-43 70 -334 191 -802 332 -167 51 -185 54 -185 29z m999 -1003 c1 -315 -4
-420 -20 -420 -11 0 -12 1001 -1 1027 10 25 19 -236 21 -607z m286 523 c-2
-49 -10 -270 -16 -493 -7 -264 -15 -414 -22 -430 -11 -24 -12 -23 -15 20 -2
25 3 207 12 405 23 526 27 585 37 585 5 0 7 -39 4 -87z"/>
<path d="M1002 2378 c-170 -92 -282 -324 -282 -582 0 -351 172 -702 429 -875
121 -82 274 -141 430 -166 24 -4 107 -10 185 -14 l141 -6 -52 50 c-42 41 -55
62 -72 119 -12 37 -21 78 -21 91 0 20 -6 23 -72 29 -175 16 -309 78 -428 197
-140 141 -214 309 -226 519 -8 126 10 208 78 352 49 105 53 118 53 189 0 62
-4 81 -19 98 -26 29 -90 28 -144 -1z"/>
<path d="M3265 2299 c-344 -88 -480 -142 -539 -211 -20 -23 -34 -44 -31 -47 3
-3 19 12 36 32 60 73 186 121 614 232 77 20 141 38 144 41 11 11 -49 -1 -224
-47z"/>
<path d="M2658 2043 c7 -3 16 -2 19 1 4 3 -2 6 -13 5 -11 0 -14 -3 -6 -6z"/>
<path d="M1480 1755 c14 -8 34 -14 45 -14 13 0 8 5 -15 14 -46 18 -61 18 -30
0z"/>
<path d="M4214 1731 c-34 -20 -64 -75 -64 -114 0 -40 17 -75 64 -131 56 -66
66 -86 66 -133 0 -92 -79 -190 -196 -245 -112 -52 -220 -69 -490 -75 l-242 -6
-11 -56 c-16 -79 -61 -171 -105 -209 l-37 -32 188 0 c244 0 507 15 609 35 222
42 387 136 489 280 152 213 147 465 -12 616 -90 85 -190 112 -259 70z"/>
<path d="M2060 888 c-3 -31 -1 -53 3 -49 5 5 7 30 5 57 l-3 49 -5 -57z"/>
<path d="M3180 863 c-3 -29 -1 -48 3 -44 5 5 7 28 5 52 l-3 44 -5 -52z"/>
</g>
</svg>
