<?xml version="1.0" encoding="utf-8"?>

<!-- Uploaded to: SVG Repo, www.svgrepo.com, Generator: SVG Repo Mixer Tools -->
<svg height="800px" width="800px" version="1.1" id="Icons" xmlns="http://www.w3.org/2000/svg" xmlns:xlink="http://www.w3.org/1999/xlink" 
	 viewBox="0 0 32 32" xml:space="preserve">
<style type="text/css">
	.st0{fill:#FFFFFF;}
</style>
<path d="M18.3,18.3c-3.1,3.1-3.1,8.2,0,11.3s8.2,3.1,11.3,0s3.1-8.2,0-11.3S21.5,15.2,18.3,18.3z M26.8,22.6L25.4,24l1.4,1.4
	c0.4,0.4,0.4,1,0,1.4c-0.4,0.4-1,0.4-1.4,0L24,25.4l-1.4,1.4c-0.4,0.4-1,0.4-1.4,0c-0.4-0.4-0.4-1,0-1.4l1.4-1.4l-1.4-1.4
	c-0.4-0.4-0.4-1,0-1.4c0.4-0.4,1-0.4,1.4,0l1.4,1.4l1.4-1.4c0.4-0.4,1-0.4,1.4,0C27.2,21.6,27.2,22.2,26.8,22.6z"/>
<path d="M14,24c0-5.5,4.5-10,10-10c1,0,2.1,0.2,3,0.5V9c0-0.6-0.4-1-1-1H11H9C7.9,8,7,7.1,7,6s0.9-2,2-2h17c0.6,0,1-0.4,1-1
	s-0.4-1-1-1H9C6.8,2,5,3.8,5,6v20c0,2.2,1.8,4,4,4h2h5C14.8,28.3,14,26.3,14,24z"/>
<g>
	<path d="M26,7H9C8.4,7,8,6.6,8,6s0.4-1,1-1h17c0.6,0,1,0.4,1,1S26.6,7,26,7z"/>
</g>
</svg>