<svg version="1.0" xmlns="http://www.w3.org/2000/svg" xmlns:xlink="http://www.w3.org/1999/xlink" width="100%" height="100%" viewBox="65 8 150 40" preserveAspectRatio="xMidYMid meet" color-interpolation-filters="sRGB" style="margin: auto;">
    <g transform="translate(67,8.393768310546875)">
        <g class="tp-name iconsvg-namesvg">
            <g transform="scale(1)">
                <g fill="#36b82a">
                    <path
                        d="M0.14-12.96C0.14-6.3 1.46 0.09 7.98 0.09 12.36 0.09 15.51-3.38 15.51-7.71 15.51-10.49 13.6-10.9 11.18-11.04 10.86-8.44 9.99-6.75 9.22-6.75 8.44-6.75 7.89-8.21 7.8-11.73 7.71-14.83 8.3-19.62 9.26-22.77 9.03-23.82 6.62-24.73 4.52-24.73 3.06-24.73 1.64-24.27 1.37-23.18 0.68-20.44 0.14-17.06 0.14-12.96ZM2.69-29.38C2.69-31.44 4.38-33.12 6.43-33.12 8.49-33.12 10.17-31.44 10.17-29.38 10.17-27.33 8.49-25.64 6.43-25.64 4.38-25.64 2.69-27.33 2.69-29.38ZM10.95-14.55C10.95-6.8 12.91 0.05 19.94 0.05 26.78 0.05 29.43-7.48 29.43-15.42 29.43-21.12 29.43-25 24.32-25 22.9-25 21.54-24.59 20.94-23.91 21.76-22.95 22.17-19.53 22.17-16.01 22.17-11.54 21.54-6.89 20.3-6.89 19.07-6.89 18.57-9.99 18.57-13.55 18.57-17.06 19.07-20.99 19.76-22.86 18.93-24.09 17.38-24.64 15.83-24.64 13.92-24.64 12.05-23.82 11.73-22.36 11.22-20.17 10.95-17.38 10.95-14.55ZM30.57-11.41C30.57-4.15 35.54 0.46 42.57 0.46 48.27 0.46 52.01-3.01 52.01-7.35 52.01-9.86 49.5-10.68 48.13-10.77 47.4-6.84 44.35-6.02 42.52-6.02 40.24-6.02 38.33-6.94 37.87-9.31 38.46-8.81 39.28-8.49 40.29-8.49 44.53-8.49 46.72-12.91 46.72-17.66 46.72-22.13 44.17-25.69 40.29-25.69 34.08-25.69 30.57-18.39 30.57-11.41ZM37.82-13.28C38.14-15.83 39.01-18.98 40.33-18.98 40.79-18.98 41.11-18.43 41.11-17.29 41.11-14.33 39.37-13.51 37.82-13.28Z"
                        transform="translate(-0.14000000059604645, 36.63999938964844)"></path>
                </g> <!----> <!----> <!----> <!----> <!----> <!---->
                <g fill="#FF5B5C" transform="translate(54.869998931884766,0)">
                    <g transform="scale(1)">
                        <path
                            d="M0.46-30.75C0.46-28.47 1.19-26.1 2.65-26.23L3.19-26.55C2.05-19.07 1.41-14.14 1.41-9.26 1.41-3.79 1.23-0.14 5.98-0.14 7.85-0.14 9.67-0.87 10.17-1.96 9.76-4.97 9.63-7.71 9.63-10.36 9.63-11.09 9.67-11.82 9.67-12.55 9.86-12.36 10.04-12.23 10.22-12.09 11.04-7.21 14.55 0.41 18.71 0.41 21.12 0.41 23.54-1.55 24.18-3.92 20.9-6.62 18.52-8.85 16.84-12.27 21.31-15.06 23.36-21.54 23.36-25.64 23.36-31.07 19.16-36.64 11-36.64 8.35-36.64 5.25-36.04 1.78-34.63 0.91-34.26 0.46-32.53 0.46-30.75ZM9.4-29.02C10.36-29.25 11.36-29.38 12.23-29.38 14.69-29.38 16.56-28.29 16.29-25 16.11-22.13 13.32-17.43 9.95-16.29 10.27-20.12 10.9-23.77 11.59-27.56 11.04-28.29 10.27-28.79 9.4-29.02ZM24.18-11.41C24.18-4.15 29.15 0.46 36.18 0.46 41.88 0.46 45.63-3.01 45.63-7.35 45.63-9.86 43.12-10.68 41.75-10.77 41.02-6.84 37.96-6.02 36.14-6.02 33.85-6.02 31.94-6.94 31.48-9.31 32.07-8.81 32.9-8.49 33.9-8.49 38.14-8.49 40.33-12.91 40.33-17.66 40.33-22.13 37.78-25.69 33.9-25.69 27.69-25.69 24.18-18.39 24.18-11.41ZM31.44-13.28C31.76-15.83 32.62-18.98 33.95-18.98 34.4-18.98 34.72-18.43 34.72-17.29 34.72-14.33 32.99-13.51 31.44-13.28ZM41.75-10.81C41.75-4.75 44.12 0.32 49.59 0.32 52.15 0.32 53.84-1.19 54.98-3.56 56.3-0.91 58.54 0.27 60.82 0.27 67.89 0.27 72.95-11.04 64.33-11.04 64.33-10.27 63.6-6.71 62-6.71 60.68-6.71 60.41-8.26 60.41-10.27 60.41-14.24 61.69-20.62 63.01-23.22 62.37-24.18 60.36-25.19 58.35-25.19 56.39-25.19 55.3-24.55 54.75-22.86 54.07-24.32 52.33-25.37 50.1-25.37 43.8-25.37 41.75-17.47 41.75-10.81ZM49.14-12C49.14-14.46 49.96-18.62 51.6-18.62 52.93-18.62 53.52-15.74 53.38-13.55 53.11-8.62 51.92-6.66 51.1-6.66 49.82-6.66 49.14-9.76 49.14-12ZM64.33-11.82C64.33-5.43 66.61 0 72.36 0 75.01 0 76.74-1.6 77.88-4.06 79.57-1.1 82.22 0.18 84.77 0.18 89.2 0.18 92.21-3.38 92.21-7.71 92.21-10.49 90.29-10.9 87.87-11.04 87.56-8.44 86.51-6.75 85.55-6.75 83.86-6.75 83.54-10.68 83.54-13.19 83.54-19.35 85.05-27.15 86.05-30.07 85.82-31.12 83.4-32.03 81.3-32.03 79.84-32.03 78.52-31.57 78.16-30.48 77.7-29.11 77.15-26.69 76.7-23.86 76.19-24.87 74.1-25.6 72.36-25.6 66.11-25.6 64.33-18.39 64.33-11.82ZM71.72-12.46C71.72-16.84 72.73-18.07 74-18.07 75.1-18.07 75.83-16.7 75.83-13.51 75.83-11.04 75.19-7.16 73.5-7.16 72.59-7.16 71.72-8.94 71.72-12.46Z"
                            transform="translate(-0.46000000834465027, 36.63999938964844)"></path>
                    </g>
                </g>
            </g>
        </g> <!---->
    </g>
</svg>
